<?xml version="1.0" encoding="UTF-8"?>
<svg id="Layer_2" data-name="Layer 2" xmlns="http://www.w3.org/2000/svg" viewBox="0 0 765.27 717.59">
  <defs>
    <style>
      .cls-1 {
        fill: #ff9178;
      }

      .cls-2 {
        fill: #c28ebe;
      }
    </style>
  </defs>
  <g id="Heart">
    <path class="cls-2" d="m310.52,295.73c-42.06-38.29-107.62-53.18-170.17-38.55-88.43,20.69-124.8,94.85-126.51,98.55-54.34,117.31,59,229.57,206.64,309.21,41.82,22.56,130.72,49.17,159.9,52.66,26.5-12.71,102.07-66.56,134.39-101.4,114.08-122.98,185.19-265.78,95.93-359.31-2.81-2.95-61.15-61.42-151.53-52.5-63.93,6.31-121.19,41.55-148.65,91.35Z"/>
    <path class="cls-1" d="m392.01,92.59C351.9,30.24,281.04-5.26,208.08.63,104.93,8.96,50.3,102.86,47.69,107.57c-82.84,149.26,23.56,329.83,174.54,473.27,42.77,40.63,137.65,97.6,169.77,109.07,32.13-11.47,127-68.44,169.77-109.07,150.98-143.43,257.39-324,174.54-473.27-2.61-4.7-57.24-98.6-160.4-106.93-72.96-5.89-143.81,29.6-183.92,91.96Z"/>
  </g>
</svg>